<svg xmlns="http://www.w3.org/2000/svg" xmlns:xlink="http://www.w3.org/1999/xlink" width="40" height="40.016"><defs><linearGradient id="a"><stop offset="0" stop-color="#30c01d"/><stop offset="1" stop-color="#46823f"/></linearGradient><radialGradient xlink:href="#a" id="b" gradientUnits="userSpaceOnUse" gradientTransform="matrix(.50796 -.22528 -.34497 -.77785 375.718 586.04)" cx="-22.813" cy="36.473" fx="-22.813" fy="36.473" r="24.614"/></defs><path d="M371.353 576.196l-6.989 3.114a.831.831 0 0 1-.512.073c-.158-.033-.331-.123-.518-.267l-9.676-7.54-1.227 4.793c-.123.438.086.804.086.804l2.514 5.643c.07.167.082.32.031.46a.56.56 0 0 1-.315.319l-6.299 2.806a.562.562 0 0 1-.446.02.618.618 0 0 1-.323-.33l-2.823-6.336c-.181-.406-.15-.499-.092-.737l6.296-24.767c.069-.259.157-.464.272-.621.115-.156.276-.278.482-.37l6.727-2.997c.162-.062.294-.043.385.058.096.101.117.23.068.395l-3.338 13 15.72 11.817a.404.404 0 0 1 .2.335c.005.138-.068.249-.223.328m-39.716-26.107c-.068-.17-.08-.321-.03-.462a.564.564 0 0 1 .314-.32l6.3-2.806a.556.556 0 0 1 .447-.02c.139.056.243.167.322.332l1.089 2.443 6.027 13.529c.07.169.082.32.03.46a.561.561 0 0 1-.312.322l-6.3 2.806a.565.565 0 0 1-.447.018c-.14-.056-.244-.165-.323-.33l-7.117-15.972z" fill="url(#b)" transform="translate(-331.576 -546.443)"/></svg>