<svg xmlns="http://www.w3.org/2000/svg" id="svg15922" width="360.079" height="92.977" version="1.1" viewBox="0 0 95.271 24.6">
  <g id="layer1" transform="translate(-576.568 63.898)">
    <g id="g3024" style="fill:#519548;fill-opacity:1;stroke:none;stroke-opacity:1" transform="matrix(.33073 0 0 -.33073 599.233 -43.488)">
      <path id="path3026" d="M0 0c-1.934.001-3.563.472-4.906 1.416-1.334.941-2.289 2.329-2.885 4.159a18.765 18.765 0 0 0-.738 3.696c-.137 1.335-.207 3.073-.203 5.228-.012 2.154.052 3.898.185 5.23.131 1.333.375 2.567.727 3.698.588 1.833 1.539 3.226 2.869 4.175 1.34.944 2.969 1.424 4.9 1.432 1.922-.001 3.561-.476 4.893-1.415 1.336-.944 2.301-2.335 2.885-4.165.357-1.13.605-2.364.74-3.695.138-1.332.209-3.075.203-5.231.012-2.154-.051-3.892-.184-5.228a18.737 18.737 0 0 0-.728-3.698C7.18 3.77 6.221 2.379 4.887 1.432 3.559.484 1.922.008 0 0m.021-12.672c5.346.027 9.918 1.287 13.735 3.781 3.808 2.495 6.469 6.113 7.969 10.864a36.194 36.194 0 0 1 1.248 5.766c.267 1.998.398 4.271.384 6.815.004 2.55-.134 4.818-.408 6.814a36.13 36.13 0 0 1-1.267 5.768c-1.516 4.74-4.19 8.354-8.006 10.835-3.826 2.482-8.403 3.727-13.748 3.735-5.35-.027-9.928-1.287-13.744-3.782-3.809-2.495-6.469-6.117-7.971-10.862a36.316 36.316 0 0 1-1.248-5.772c-.266-1.998-.389-4.267-.385-6.816.004-2.544.135-4.817.408-6.814a36.276 36.276 0 0 1 1.268-5.762c1.517-4.746 4.189-8.355 8.008-10.836 3.826-2.481 8.408-3.726 13.757-3.734" style="fill:#519548;fill-opacity:1;fill-rule:evenodd;stroke:none;stroke-opacity:1"/>
    </g>
    <g id="g3028" style="fill:#519548;fill-opacity:1;stroke:none;stroke-opacity:1" transform="matrix(.33073 0 0 -.33073 615.511 -39.503)">
      <path id="path3030" d="M0 0c.311 0 .553.102.74.295.186.193.285.451.285.78l-.017 10.64c-.002.328-.102.586-.289.777-.188.194-.43.289-.74.298l-2.178-.004c-1.494-.02-2.6.359-3.301 1.133-.711.779-1.059 2.044-1.063 3.8l-.093 54.917c0 .329-.094.587-.28.78-.185.192-.437.292-.75.295l-12.418-.021c-.312-.004-.556-.105-.742-.298-.185-.194-.287-.452-.287-.781l.098-56.099c-.041-5.721 1.174-9.915 3.623-12.581C-14.951 1.262-10.986-.05-5.492-.01z" style="fill:#519548;fill-opacity:1;fill-rule:evenodd;stroke:none;stroke-opacity:1"/>
    </g>
    <g id="g3032" style="fill:#519548;fill-opacity:1;stroke:none;stroke-opacity:1" transform="matrix(.33073 0 0 -.33073 622.064 -39.728)">
      <path id="path3034" d="M0 0c.322.005.566.102.75.294.188.194.287.457.287.781L.951 50.938c0 .328-.101.585-.289.778-.185.193-.43.294-.75.297l-12.41-.021c-.313-.005-.565-.106-.75-.3-.188-.193-.277-.451-.285-.779l.086-49.862c.009-.324.099-.587.287-.78.185-.193.439-.289.752-.292zm-.104 60.3c.323.01.567.107.75.299.188.193.288.452.288.78l-.02 10.626c0 .329-.101.587-.287.78-.186.193-.432.293-.752.296l-12.41-.021c-.313-.005-.565-.105-.75-.299-.186-.193-.276-.452-.285-.781l.019-10.626c.01-.328.1-.586.287-.779.186-.192.438-.287.75-.297z" style="fill:#519548;fill-opacity:1;fill-rule:evenodd;stroke:none;stroke-opacity:1"/>
    </g>
    <g id="g3036" style="fill:#519548;fill-opacity:1;stroke:none;stroke-opacity:1" transform="matrix(.33073 0 0 -.33073 631.505 -39.353)">
      <path id="path3038" d="M0 0c7.18.091 12.678 1.743 16.494 4.956 3.817 3.213 5.758 7.517 5.83 12.915.035 4.397-1.269 7.967-3.922 10.719-2.646 2.75-6.9 4.437-12.756 5.058l-5.492.639c-2.783.263-4.658.745-5.613 1.453-.955.708-1.404 1.653-1.338 2.836-.01 1.31.51 2.349 1.555 3.122 1.053.772 2.631 1.169 4.756 1.19 2.617-.029 5.105-.441 7.451-1.235 2.346-.798 4.381-1.775 6.121-2.937.262-.162.516-.236.76-.214.252.022.478.167.691.431l5.774 7.425c.201.277.287.558.259.846-.035.289-.15.544-.363.766-2.357 1.862-5.252 3.386-8.713 4.576-3.453 1.189-7.31 1.796-11.586 1.832-6.562-.068-11.623-1.575-15.178-4.524-3.562-2.949-5.353-7.003-5.386-12.164.025-4.687 1.441-8.374 4.236-11.057 2.789-2.68 6.834-4.29 12.141-4.832l5.593-.633c2.836-.264 4.752-.772 5.749-1.52 1.003-.752 1.47-1.749 1.406-2.983.011-1.477-.621-2.666-1.893-3.566-1.281-.9-3.228-1.368-5.871-1.395-2.621.01-5.271.514-7.939 1.508a26.993 26.993 0 0 0-7.387 4.166c-.535.429-1.025.428-1.453-.002l-6.709-7.862a1.086 1.086 0 0 1-.311-.749c0-.278.11-.532.315-.754 2.379-2.207 5.463-4.082 9.252-5.621C-9.736.854-5.221.058 0 0" style="fill:#519548;fill-opacity:1;fill-rule:evenodd;stroke:none;stroke-opacity:1"/>
    </g>
    <g id="g3040" style="fill:#519548;fill-opacity:1;stroke:none;stroke-opacity:1" transform="matrix(.33073 0 0 -.33073 644.723 -50.178)">
      <path id="path3042" d="M0 0c-.412-.002-.625.219-.625.648.006.796.049 1.51.139 2.137.091.626.218 1.204.377 1.735.578 1.796 1.605 3.192 3.054 4.193 1.457 1.001 3.229 1.508 5.321 1.528 2.084-.013 3.865-.513 5.316-1.51 1.461-.996 2.486-2.389 3.08-4.182.151-.53.279-1.109.373-1.735.094-.626.147-1.339.149-2.136 0-.43-.204-.649-.623-.651zm8.955-32.646c4.625.039 8.738.838 12.328 2.395 3.6 1.557 6.594 3.669 8.983 6.336.211.228.312.478.302.753-.015.28-.152.526-.406.753l-6.842 6.655c-.215.263-.441.386-.685.362-.246-.021-.506-.14-.768-.365a16.268 16.268 0 0 0-4.963-3.371c-1.871-.826-4.047-1.252-6.517-1.273-2.617-.004-4.819.578-6.617 1.736C1.971-17.507.729-15.798.023-13.534c-.314.862-.519 1.83-.63 2.907 0 .43.212.643.625.645l30.336.051c.361.005.64.103.832.296.201.193.296.455.302.78-.013 4.301-.162 7.642-.455 10.016-.299 2.374-.707 4.375-1.234 5.995-1.485 4.605-4.07 8.175-7.772 10.717-3.689 2.542-8.324 3.828-13.89 3.858-5.381-.04-9.934-1.331-13.668-3.878-3.733-2.548-6.342-6.169-7.834-10.876-.522-1.597-.924-3.393-1.207-5.399-.291-2.008-.43-4.363-.436-7.08.014-2.662.188-4.987.512-6.979.322-1.997.748-3.788 1.273-5.381 1.485-4.705 4.123-8.336 7.916-10.903 3.784-2.564 8.541-3.861 14.262-3.881" style="fill:#519548;fill-opacity:1;fill-rule:evenodd;stroke:none;stroke-opacity:1"/>
    </g>
    <g id="g3044" style="fill:#519548;fill-opacity:1;stroke:none;stroke-opacity:1" transform="matrix(.33073 0 0 -.33073 664.11 -43.6)">
      <path id="path3046" d="M0 0c-1.924.001-3.561.472-4.896 1.415-1.334.943-2.299 2.33-2.883 4.16A18.839 18.839 0 0 0-8.52 9.27c-.136 1.335-.209 3.074-.203 5.228-.011 2.156.053 3.898.186 5.231.133 1.332.375 2.567.728 3.698.577 1.833 1.536 3.226 2.868 4.175 1.334.943 2.968 1.424 4.89 1.432 1.934-.001 3.571-.476 4.905-1.415 1.334-.944 2.291-2.335 2.884-4.165.358-1.13.602-2.364.741-3.696.134-1.332.207-3.074.203-5.229.009-2.155-.055-3.894-.186-5.23a18.67 18.67 0 0 0-.728-3.697C7.182 3.77 6.23 2.38 4.898 1.433 3.566.483 1.932.008 0 0m.021-12.673c5.348.027 9.928 1.288 13.745 3.782 3.808 2.495 6.466 6.113 7.968 10.863a35.988 35.988 0 0 1 1.248 5.767c.266 1.997.399 4.273.385 6.815.006 2.55-.135 4.817-.408 6.815a36.033 36.033 0 0 1-1.268 5.767c-1.517 4.74-4.189 8.354-8.005 10.835-3.827 2.482-8.409 3.727-13.758 3.735-5.338-.027-9.918-1.287-13.737-3.782-3.806-2.495-6.464-6.117-7.968-10.862a36.304 36.304 0 0 1-1.248-5.773c-.266-1.998-.387-4.266-.383-6.815.004-2.544.135-4.818.406-6.814a36.178 36.178 0 0 1 1.268-5.763c1.519-4.745 4.189-8.354 8.007-10.835C-9.9-11.419-5.318-12.663.021-12.673" style="fill:#519548;fill-opacity:1;fill-rule:evenodd;stroke:none;stroke-opacity:1"/>
    </g>
    <g id="g3048" style="fill:#519548;fill-opacity:1;stroke:none;stroke-opacity:1" transform="matrix(.33073 0 0 -.33073 591.876 -39.676)">
      <path id="path3050" d="m0 0-13.768-.024a1.497 1.497 0 0 0-.896.253c-.236.169-.455.445-.658.818l-10.416 19.464-5.516-6.991c-.521-.631-.445-1.385-.445-1.385l.019-11.117c-.008-.325-.099-.586-.285-.781-.185-.192-.43-.289-.75-.294l-12.41-.021c-.313.004-.564.099-.75.292-.188.193-.281.456-.289.779l-.022 12.484c-.002.8.118.929.387 1.279l28.426 36.15c.303.376.598.649.902.824.303.172.657.255 1.063.256l13.252.023c.312-.017.515-.144.592-.376.084-.237.025-.464-.176-.7l-14.977-18.949L.521 1.074C.672.842.699.609.607.377.514.145.313.017 0 0m-46.287 71.924c.01.328.101.587.287.781.186.193.437.294.75.298l12.41.021c.32-.003.565-.103.75-.295.188-.193.279-.452.289-.78l.008-4.814.045-26.653c-.008-.329-.098-.586-.285-.78-.186-.193-.428-.294-.75-.3l-12.41-.021c-.311.004-.565.104-.75.297-.188.193-.28.45-.289.779z" style="fill:#519548;fill-opacity:1;fill-rule:nonzero;stroke:none;stroke-opacity:1"/>
    </g>
  </g>
</svg>