<svg xmlns="http://www.w3.org/2000/svg" xmlns:xlink="http://www.w3.org/1999/xlink" width="1413.14" height="686.336"><defs><linearGradient id="a" gradientTransform="scale(2632.8623 -2632.8623) rotate(56.23 3.376 3.902)" gradientUnits="userSpaceOnUse" x2="1"><stop offset="0" stop-color="#2e2d2d"/><stop offset=".009" stop-color="#2e2d2d"/><stop offset=".138" stop-color="#cdccc9"/><stop offset=".255" stop-color="#e8e8e7"/><stop offset=".457" stop-color="#7a7b7d"/><stop offset=".552" stop-color="#23272e"/><stop offset=".681" stop-color="#7a7b7d"/><stop offset=".801" stop-color="#21242a"/><stop offset=".874" stop-color="#5e5f62"/><stop offset="1" stop-color="#b1b1b0"/></linearGradient><clipPath id="f"><path d="M7028.62 671.543H798.988c-175.074 0-291.793 77.574-291.793 77.574H7334.99s-145.88-77.574-306.37-77.574"/></clipPath><clipPath id="g"><path d="M3442.09 847.039v-22.211c0-21.476 17.42-38.91 38.9-38.91h880.22c21.49 0 38.91 17.434 38.91 38.91v22.211z"/></clipPath><clipPath id="e"><path d="M507.195 749.117h6827.8v97.922h-6827.8z"/></clipPath><filter id="b" color-interpolation-filters="sRGB"><feFlood flood-opacity=".498" flood-color="#000" result="flood"/><feComposite in="flood" in2="SourceGraphic" operator="in" result="composite1"/><feGaussianBlur in="composite1" stdDeviation="8.7" result="blur"/><feOffset dx="8.6" dy="8.6" result="offset"/><feComposite in="SourceGraphic" in2="offset" result="composite2"/></filter><filter id="h" color-interpolation-filters="sRGB"><feFlood flood-opacity=".498" flood-color="#000" result="flood"/><feComposite in="flood" in2="SourceGraphic" operator="in" result="composite1"/><feGaussianBlur in="composite1" stdDeviation="8.7" result="blur"/><feOffset dx="8.6" dy="8.6" result="offset"/><feComposite in="SourceGraphic" in2="offset" result="composite2"/></filter></defs><g transform="translate(910.735 -738.129)" filter="url(#b)"><g transform="translate(18.78)"><rect width="945.067" height="650.137" x="-608.908" y="741.054" ry="37.674" rx="39.805" display="block" fill="#e6efff" stroke="#c2d7fc" stroke-width="5.851"/><path d="M-572.027 791.186l14.78-4.832 843.258 545.094-9.88 3.985-853.26.001 5.102-544.248z" fill="#8bb4fa" display="block" stroke-width=".439"/><path d="M-568.064 786.354h858.978l-5.139 543.962h-858.977l5.138-543.962z" fill="#0d3273" display="block" stroke-width=".436"/><path d="M-137.121 760.33c3.116 0 5.628 2.384 5.618 5.316-.01 2.935-2.537 5.318-5.654 5.318-3.111 0-5.621-2.382-5.61-5.316.01-2.934 2.535-5.318 5.646-5.317" fill="#5888db" display="block"/></g><g id="c"><g display="block"><path d="M-50.557-23.848l-155.583-89.803c-1.953-1.127-3.535-3.868-3.535-6.123l.021-187.806c0-2.255 1.583-3.169 3.536-2.042l155.583 89.803c1.953 1.127 3.536 3.869 3.536 6.124L-47.02-25.89c0 2.255-1.584 3.169-3.537 2.042z" fill="#d9e7fd" transform="matrix(1.1655 -.45636 0 .79043 -269.405 948.018)"/><path stroke-miterlimit="10" d="M-50.557-23.848l-155.583-89.803c-1.953-1.127-3.535-3.868-3.535-6.123l.021-187.806c0-2.255 1.583-3.169 3.536-2.042l155.583 89.803c1.953 1.127 3.536 3.869 3.536 6.124L-47.02-25.89c0 2.255-1.584 3.169-3.537 2.042z" fill-opacity="0" stroke="#adcbff" stroke-width="2" transform="matrix(1.1655 -.45636 0 .79043 -269.405 948.018)"/></g><path d="M-167.225-254.836c10.545 6.087 19.093 22.866 19.091 37.477-.002 14.611-8.552 21.522-19.097 15.435-10.545-6.087-19.094-22.866-19.092-37.477.002-14.611 8.553-21.522 19.098-15.435z" fill="#fff" transform="matrix(1.1655 -.45636 0 .79043 -269.405 948.018)"/><path stroke-miterlimit="10" d="M-167.225-254.836c10.545 6.087 19.093 22.866 19.091 37.477-.002 14.611-8.552 21.522-19.097 15.435-10.545-6.087-19.094-22.866-19.092-37.477.002-14.611 8.553-21.522 19.098-15.435z" fill-opacity="0" stroke="#ccdfff" stroke-width="2" transform="matrix(1.1655 -.45636 0 .79043 -269.405 948.018)"/><path d="M-179.382-214.985l.001-1.79c0-2.589 1.002-4.402 2.625-4.751l5.183-1.127 8.688 5.016 5.182 7.11c1.622 2.221 2.623 5.19 2.623 7.779v1.79s-4.38 3.519-12.151-.966-12.151-13.061-12.151-13.061z" fill="#3e81f6" transform="matrix(1.1655 -.45636 0 .79043 -269.405 948.018)"/><path d="M-167.23-217.557c-3.834-2.213-6.943-9.518-6.942-14.831l.001-4.81c.001-5.313 3.11-7.825 6.944-5.612s6.943 8.315 6.942 13.628v4.81c-.001 5.313-3.111 9.028-6.945 6.815z" fill="#3e81f6" transform="matrix(1.1655 -.45636 0 .79043 -269.405 948.018)"/><path stroke-miterlimit="10" d="M-167.23-217.557c-3.834-2.213-6.943-9.518-6.942-14.831l.001-4.81c.001-5.313 3.11-7.825 6.944-5.612s6.943 8.315 6.942 13.628v4.81c-.001 5.313-3.111 9.028-6.945 6.815z" fill-opacity="0" stroke="#fff" stroke-width="2" transform="matrix(1.1655 -.45636 0 .79043 -269.405 948.018)"/><path d="M-69.634-186.747l-60.819-35.105c-.781-.451-1.414-1.547-1.414-2.449l.001-6.532c0-.902.633-1.268 1.414-.817l60.819 35.105c.781.451 1.414 1.547 1.414 2.449v6.532c0 .902-.634 1.268-1.415.817z" fill="#3e81f6" transform="matrix(1.1655 -.45636 0 .79043 -269.405 948.018)"/><path d="M-69.642-118.157l-117.394-67.76c-.781-.451-1.414-1.548-1.414-2.45l.001-6.532c0-.902.633-1.268 1.414-.817l117.395 67.76c.781.451 1.414 1.548 1.414 2.45l-.001 6.532c0 .902-.634 1.268-1.415.817z" fill="#3e81f6" transform="matrix(1.1655 -.45636 0 .79043 -269.405 948.018)" opacity=".2"/><g opacity=".2"><path d="M-100.76-117.141l-86.278-49.799c-.781-.451-1.414-1.548-1.414-2.45v-6.532c0-.902.634-1.268 1.415-.817l86.278 49.8c.781.451 1.414 1.547 1.414 2.449l-.001 6.533c0 .902-.633 1.267-1.414.816z" fill="#3e81f6" transform="matrix(1.1655 -.45636 0 .79043 -269.405 948.018)"/></g><g opacity=".2"><path d="M-99.785-184.552l-30.67-17.702c-.781-.451-1.414-1.548-1.414-2.45l.001-6.532c0-.902.633-1.268 1.414-.817l30.67 17.703c.781.451 1.414 1.547 1.414 2.449v6.533c0 .902-.634 1.267-1.415.816z" fill="#3e81f6" transform="matrix(1.1655 -.45636 0 .79043 -269.405 948.018)"/></g><g><path d="M-56.917-66.716l-65.062-37.554c-1.562-.902-2.829-.171-2.829 1.633l-.003 22.864c0 1.804 1.267 3.997 2.829 4.899L-56.92-37.32c1.562.902 2.829.17 2.829-1.634l.002-22.863c0-1.804-1.266-3.997-2.828-4.899z" fill="#1250bf" transform="matrix(1.1655 -.45636 0 .79043 -269.405 948.018)"/></g><g><path d="M-134.708-111.617l-65.062-37.554c-1.562-.902-2.83-.171-2.83 1.633l-.002 22.864c0 1.804 1.266 3.996 2.828 4.898l65.062 37.554c1.562.902 2.829.171 2.829-1.633l.003-22.863c0-1.804-1.266-3.997-2.828-4.899z" fill="#3e81f6" transform="matrix(1.1655 -.45636 0 .79043 -269.405 948.018)"/></g><g><g display="block"><path d="M-50.557-23.848l-155.583-89.803c-1.953-1.127-3.535-3.868-3.535-6.123l.021-187.806c0-2.255 1.583-3.169 3.536-2.042l155.583 89.803c1.953 1.127 3.536 3.869 3.536 6.124L-47.02-25.89c0 2.255-1.584 3.169-3.537 2.042z" fill="#d9e7fd" transform="matrix(1.1655 -.45636 0 .79043 -68.48 948.018)"/><path stroke-miterlimit="10" d="M-50.557-23.848l-155.583-89.803c-1.953-1.127-3.535-3.868-3.535-6.123l.021-187.806c0-2.255 1.583-3.169 3.536-2.042l155.583 89.803c1.953 1.127 3.536 3.869 3.536 6.124L-47.02-25.89c0 2.255-1.584 3.169-3.537 2.042z" fill-opacity="0" stroke="#adcbff" stroke-width="2" transform="matrix(1.1655 -.45636 0 .79043 -68.48 948.018)"/></g><path d="M-167.225-254.836c10.545 6.087 19.093 22.866 19.091 37.477-.002 14.611-8.552 21.522-19.097 15.435-10.545-6.087-19.094-22.866-19.092-37.477.002-14.611 8.553-21.522 19.098-15.435z" fill="#fff" transform="matrix(1.1655 -.45636 0 .79043 -68.48 948.018)"/><path stroke-miterlimit="10" d="M-167.225-254.836c10.545 6.087 19.093 22.866 19.091 37.477-.002 14.611-8.552 21.522-19.097 15.435-10.545-6.087-19.094-22.866-19.092-37.477.002-14.611 8.553-21.522 19.098-15.435z" fill-opacity="0" stroke="#ccdfff" stroke-width="2" transform="matrix(1.1655 -.45636 0 .79043 -68.48 948.018)"/><path d="M-179.382-214.985l.001-1.79c0-2.589 1.002-4.402 2.625-4.751l5.183-1.127 8.688 5.016 5.182 7.11c1.622 2.221 2.623 5.19 2.623 7.779v1.79s-4.38 3.519-12.151-.966-12.151-13.061-12.151-13.061z" fill="#3e81f6" transform="matrix(1.1655 -.45636 0 .79043 -68.48 948.018)"/><path d="M-167.23-217.557c-3.834-2.213-6.943-9.518-6.942-14.831l.001-4.81c.001-5.313 3.11-7.825 6.944-5.612s6.943 8.315 6.942 13.628v4.81c-.001 5.313-3.111 9.028-6.945 6.815z" fill="#3e81f6" transform="matrix(1.1655 -.45636 0 .79043 -68.48 948.018)"/><path stroke-miterlimit="10" d="M-167.23-217.557c-3.834-2.213-6.943-9.518-6.942-14.831l.001-4.81c.001-5.313 3.11-7.825 6.944-5.612s6.943 8.315 6.942 13.628v4.81c-.001 5.313-3.111 9.028-6.945 6.815z" fill-opacity="0" stroke="#fff" stroke-width="2" transform="matrix(1.1655 -.45636 0 .79043 -68.48 948.018)"/><path d="M-69.634-186.747l-60.819-35.105c-.781-.451-1.414-1.547-1.414-2.449l.001-6.532c0-.902.633-1.268 1.414-.817l60.819 35.105c.781.451 1.414 1.547 1.414 2.449v6.532c0 .902-.634 1.268-1.415.817z" fill="#3e81f6" transform="matrix(1.1655 -.45636 0 .79043 -68.48 948.018)"/><path d="M-69.642-118.157l-117.394-67.76c-.781-.451-1.414-1.548-1.414-2.45l.001-6.532c0-.902.633-1.268 1.414-.817l117.395 67.76c.781.451 1.414 1.548 1.414 2.45l-.001 6.532c0 .902-.634 1.268-1.415.817z" fill="#3e81f6" transform="matrix(1.1655 -.45636 0 .79043 -68.48 948.018)" opacity=".2"/><g opacity=".2"><path d="M-100.76-117.141l-86.278-49.799c-.781-.451-1.414-1.548-1.414-2.45v-6.532c0-.902.634-1.268 1.415-.817l86.278 49.8c.781.451 1.414 1.547 1.414 2.449l-.001 6.533c0 .902-.633 1.267-1.414.816z" fill="#3e81f6" transform="matrix(1.1655 -.45636 0 .79043 -68.48 948.018)"/></g><g opacity=".2"><path d="M-99.785-184.552l-30.67-17.702c-.781-.451-1.414-1.548-1.414-2.45l.001-6.532c0-.902.633-1.268 1.414-.817l30.67 17.703c.781.451 1.414 1.547 1.414 2.449v6.533c0 .902-.634 1.267-1.415.816z" fill="#3e81f6" transform="matrix(1.1655 -.45636 0 .79043 -68.48 948.018)"/></g><g><path d="M-56.917-66.716l-65.062-37.554c-1.562-.902-2.829-.171-2.829 1.633l-.003 22.864c0 1.804 1.267 3.997 2.829 4.899L-56.92-37.32c1.562.902 2.829.17 2.829-1.634l.002-22.863c0-1.804-1.266-3.997-2.828-4.899z" fill="#1250bf" transform="matrix(1.1655 -.45636 0 .79043 -68.48 948.018)"/></g><g><path d="M-134.708-111.617l-65.062-37.554c-1.562-.902-2.83-.171-2.83 1.633l-.002 22.864c0 1.804 1.266 3.996 2.828 4.898l65.062 37.554c1.562.902 2.829.171 2.829-1.633l.003-22.863c0-1.804-1.266-3.997-2.828-4.899z" fill="#3e81f6" transform="matrix(1.1655 -.45636 0 .79043 -68.48 948.018)"/></g></g><g><g display="block"><path d="M-50.557-23.848l-155.583-89.803c-1.953-1.127-3.535-3.868-3.535-6.123l.021-187.806c0-2.255 1.583-3.169 3.536-2.042l155.583 89.803c1.953 1.127 3.536 3.869 3.536 6.124L-47.02-25.89c0 2.255-1.584 3.169-3.537 2.042z" fill="#d9e7fd" transform="matrix(1.1655 -.45636 0 .79043 132.446 948.018)"/><path stroke-miterlimit="10" d="M-50.557-23.848l-155.583-89.803c-1.953-1.127-3.535-3.868-3.535-6.123l.021-187.806c0-2.255 1.583-3.169 3.536-2.042l155.583 89.803c1.953 1.127 3.536 3.869 3.536 6.124L-47.02-25.89c0 2.255-1.584 3.169-3.537 2.042z" fill-opacity="0" stroke="#adcbff" stroke-width="2" transform="matrix(1.1655 -.45636 0 .79043 132.446 948.018)"/></g><path d="M-167.225-254.836c10.545 6.087 19.093 22.866 19.091 37.477-.002 14.611-8.552 21.522-19.097 15.435-10.545-6.087-19.094-22.866-19.092-37.477.002-14.611 8.553-21.522 19.098-15.435z" fill="#fff" transform="matrix(1.1655 -.45636 0 .79043 132.446 948.018)"/><path stroke-miterlimit="10" d="M-167.225-254.836c10.545 6.087 19.093 22.866 19.091 37.477-.002 14.611-8.552 21.522-19.097 15.435-10.545-6.087-19.094-22.866-19.092-37.477.002-14.611 8.553-21.522 19.098-15.435z" fill-opacity="0" stroke="#ccdfff" stroke-width="2" transform="matrix(1.1655 -.45636 0 .79043 132.446 948.018)"/><path d="M-179.382-214.985l.001-1.79c0-2.589 1.002-4.402 2.625-4.751l5.183-1.127 8.688 5.016 5.182 7.11c1.622 2.221 2.623 5.19 2.623 7.779v1.79s-4.38 3.519-12.151-.966-12.151-13.061-12.151-13.061z" fill="#3e81f6" transform="matrix(1.1655 -.45636 0 .79043 132.446 948.018)"/><path d="M-167.23-217.557c-3.834-2.213-6.943-9.518-6.942-14.831l.001-4.81c.001-5.313 3.11-7.825 6.944-5.612s6.943 8.315 6.942 13.628v4.81c-.001 5.313-3.111 9.028-6.945 6.815z" fill="#3e81f6" transform="matrix(1.1655 -.45636 0 .79043 132.446 948.018)"/><path stroke-miterlimit="10" d="M-167.23-217.557c-3.834-2.213-6.943-9.518-6.942-14.831l.001-4.81c.001-5.313 3.11-7.825 6.944-5.612s6.943 8.315 6.942 13.628v4.81c-.001 5.313-3.111 9.028-6.945 6.815z" fill-opacity="0" stroke="#fff" stroke-width="2" transform="matrix(1.1655 -.45636 0 .79043 132.446 948.018)"/><path d="M-69.634-186.747l-60.819-35.105c-.781-.451-1.414-1.547-1.414-2.449l.001-6.532c0-.902.633-1.268 1.414-.817l60.819 35.105c.781.451 1.414 1.547 1.414 2.449v6.532c0 .902-.634 1.268-1.415.817z" fill="#3e81f6" transform="matrix(1.1655 -.45636 0 .79043 132.446 948.018)"/><path d="M-69.642-118.157l-117.394-67.76c-.781-.451-1.414-1.548-1.414-2.45l.001-6.532c0-.902.633-1.268 1.414-.817l117.395 67.76c.781.451 1.414 1.548 1.414 2.45l-.001 6.532c0 .902-.634 1.268-1.415.817z" fill="#3e81f6" transform="matrix(1.1655 -.45636 0 .79043 132.446 948.018)" opacity=".2"/><g opacity=".2"><path d="M-100.76-117.141l-86.278-49.799c-.781-.451-1.414-1.548-1.414-2.45v-6.532c0-.902.634-1.268 1.415-.817l86.278 49.8c.781.451 1.414 1.547 1.414 2.449l-.001 6.533c0 .902-.633 1.267-1.414.816z" fill="#3e81f6" transform="matrix(1.1655 -.45636 0 .79043 132.446 948.018)"/></g><g opacity=".2"><path d="M-99.785-184.552l-30.67-17.702c-.781-.451-1.414-1.548-1.414-2.45l.001-6.532c0-.902.633-1.268 1.414-.817l30.67 17.703c.781.451 1.414 1.547 1.414 2.449v6.533c0 .902-.634 1.267-1.415.816z" fill="#3e81f6" transform="matrix(1.1655 -.45636 0 .79043 132.446 948.018)"/></g><g><path d="M-56.917-66.716l-65.062-37.554c-1.562-.902-2.829-.171-2.829 1.633l-.003 22.864c0 1.804 1.267 3.997 2.829 4.899L-56.92-37.32c1.562.902 2.829.17 2.829-1.634l.002-22.863c0-1.804-1.266-3.997-2.828-4.899z" fill="#1250bf" transform="matrix(1.1655 -.45636 0 .79043 132.446 948.018)"/></g><g><path d="M-134.708-111.617l-65.062-37.554c-1.562-.902-2.83-.171-2.83 1.633l-.002 22.864c0 1.804 1.266 3.996 2.828 4.898l65.062 37.554c1.562.902 2.829.171 2.829-1.633l.003-22.863c0-1.804-1.266-3.997-2.828-4.899z" fill="#3e81f6" transform="matrix(1.1655 -.45636 0 .79043 132.446 948.018)"/></g></g><g><g display="block"><path d="M-50.557-23.848l-155.583-89.803c-1.953-1.127-3.535-3.868-3.535-6.123l.021-187.806c0-2.255 1.583-3.169 3.536-2.042l155.583 89.803c1.953 1.127 3.536 3.869 3.536 6.124L-47.02-25.89c0 2.255-1.584 3.169-3.537 2.042z" fill="#d9e7fd" transform="matrix(1.1655 -.45636 0 .79043 333.371 948.018)"/><path stroke-miterlimit="10" d="M-50.557-23.848l-155.583-89.803c-1.953-1.127-3.535-3.868-3.535-6.123l.021-187.806c0-2.255 1.583-3.169 3.536-2.042l155.583 89.803c1.953 1.127 3.536 3.869 3.536 6.124L-47.02-25.89c0 2.255-1.584 3.169-3.537 2.042z" fill-opacity="0" stroke="#adcbff" stroke-width="2" transform="matrix(1.1655 -.45636 0 .79043 333.371 948.018)"/></g><path d="M-167.225-254.836c10.545 6.087 19.093 22.866 19.091 37.477-.002 14.611-8.552 21.522-19.097 15.435-10.545-6.087-19.094-22.866-19.092-37.477.002-14.611 8.553-21.522 19.098-15.435z" fill="#fff" transform="matrix(1.1655 -.45636 0 .79043 333.371 948.018)"/><path stroke-miterlimit="10" d="M-167.225-254.836c10.545 6.087 19.093 22.866 19.091 37.477-.002 14.611-8.552 21.522-19.097 15.435-10.545-6.087-19.094-22.866-19.092-37.477.002-14.611 8.553-21.522 19.098-15.435z" fill-opacity="0" stroke="#ccdfff" stroke-width="2" transform="matrix(1.1655 -.45636 0 .79043 333.371 948.018)"/><path d="M-179.382-214.985l.001-1.79c0-2.589 1.002-4.402 2.625-4.751l5.183-1.127 8.688 5.016 5.182 7.11c1.622 2.221 2.623 5.19 2.623 7.779v1.79s-4.38 3.519-12.151-.966-12.151-13.061-12.151-13.061z" fill="#3e81f6" transform="matrix(1.1655 -.45636 0 .79043 333.371 948.018)"/><path d="M-167.23-217.557c-3.834-2.213-6.943-9.518-6.942-14.831l.001-4.81c.001-5.313 3.11-7.825 6.944-5.612s6.943 8.315 6.942 13.628v4.81c-.001 5.313-3.111 9.028-6.945 6.815z" fill="#3e81f6" transform="matrix(1.1655 -.45636 0 .79043 333.371 948.018)"/><path stroke-miterlimit="10" d="M-167.23-217.557c-3.834-2.213-6.943-9.518-6.942-14.831l.001-4.81c.001-5.313 3.11-7.825 6.944-5.612s6.943 8.315 6.942 13.628v4.81c-.001 5.313-3.111 9.028-6.945 6.815z" fill-opacity="0" stroke="#fff" stroke-width="2" transform="matrix(1.1655 -.45636 0 .79043 333.371 948.018)"/><path d="M-69.634-186.747l-60.819-35.105c-.781-.451-1.414-1.547-1.414-2.449l.001-6.532c0-.902.633-1.268 1.414-.817l60.819 35.105c.781.451 1.414 1.547 1.414 2.449v6.532c0 .902-.634 1.268-1.415.817z" fill="#3e81f6" transform="matrix(1.1655 -.45636 0 .79043 333.371 948.018)"/><path d="M-69.642-118.157l-117.394-67.76c-.781-.451-1.414-1.548-1.414-2.45l.001-6.532c0-.902.633-1.268 1.414-.817l117.395 67.76c.781.451 1.414 1.548 1.414 2.45l-.001 6.532c0 .902-.634 1.268-1.415.817z" fill="#3e81f6" transform="matrix(1.1655 -.45636 0 .79043 333.371 948.018)" opacity=".2"/><g opacity=".2"><path d="M-100.76-117.141l-86.278-49.799c-.781-.451-1.414-1.548-1.414-2.45v-6.532c0-.902.634-1.268 1.415-.817l86.278 49.8c.781.451 1.414 1.547 1.414 2.449l-.001 6.533c0 .902-.633 1.267-1.414.816z" fill="#3e81f6" transform="matrix(1.1655 -.45636 0 .79043 333.371 948.018)"/></g><g opacity=".2"><path d="M-99.785-184.552l-30.67-17.702c-.781-.451-1.414-1.548-1.414-2.45l.001-6.532c0-.902.633-1.268 1.414-.817l30.67 17.703c.781.451 1.414 1.547 1.414 2.449v6.533c0 .902-.634 1.267-1.415.816z" fill="#3e81f6" transform="matrix(1.1655 -.45636 0 .79043 333.371 948.018)"/></g><g><path d="M-56.917-66.716l-65.062-37.554c-1.562-.902-2.829-.171-2.829 1.633l-.003 22.864c0 1.804 1.267 3.997 2.829 4.899L-56.92-37.32c1.562.902 2.829.17 2.829-1.634l.002-22.863c0-1.804-1.266-3.997-2.828-4.899z" fill="#1250bf" transform="matrix(1.1655 -.45636 0 .79043 333.371 948.018)"/></g><g><path d="M-134.708-111.617l-65.062-37.554c-1.562-.902-2.83-.171-2.83 1.633l-.002 22.864c0 1.804 1.266 3.996 2.828 4.898l65.062 37.554c1.562.902 2.829.171 2.829-1.633l.003-22.863c0-1.804-1.266-3.997-2.828-4.899z" fill="#3e81f6" transform="matrix(1.1655 -.45636 0 .79043 333.371 948.018)"/></g></g></g><use transform="translate(0 182.986)" height="100%" width="100%" id="d" xlink:href="#c"/><use height="100%" width="100%" transform="translate(0 182.986)" xlink:href="#d"/><g transform="matrix(.18161 0 0 -.18153 -829.703 1515.71)" clip-path="url(#e)" fill="#e6efff" stroke-width="19.733"><path d="M507.195 749.117h6827.8v97.922h-6827.8z"/></g><g transform="matrix(.18161 0 0 -.18153 -829.702 1515.71)" clip-path="url(#f)" fill="#a1bff4"><path d="M7028.62 671.543H798.988c-175.074 0-291.793 77.574-291.793 77.574H7334.99s-145.88-77.574-306.37-77.574"/></g><g transform="matrix(.18161 0 0 -.18153 -829.703 1515.71)" clip-path="url(#g)" fill="#c2d7fc"><path d="M3442.09 847.039v-22.211c0-21.476 17.42-38.91 38.9-38.91h880.22c21.49 0 38.91 17.434 38.91 38.91v22.211h-958.03"/></g><path d="M-737.591 1361.946H502.405" fill="none" stroke="#c2d7fc" stroke-width="2.135"/><g><g display="block"><path d="M73.522 1135.225l-181.331.018c-2.277 0-4.12-1.444-4.12-3.226l.024-148.458c0-1.782 1.845-3.227 4.121-3.228l181.331-.018c2.277 0 4.122 1.445 4.122 3.227l-.025 148.457c0 1.783-1.846 3.228-4.122 3.228z" fill="#fdf2d9"/><path d="M-50.557-23.848l-155.583-89.803c-1.953-1.127-3.535-3.868-3.535-6.123l.021-187.806c0-2.255 1.583-3.169 3.536-2.042l155.583 89.803c1.953 1.127 3.536 3.869 3.536 6.124L-47.02-25.89c0 2.255-1.584 3.169-3.537 2.042z" stroke-miterlimit="10" stroke="#ffe5ad" stroke-width="2" fill="none" transform="matrix(1.1655 -.45636 0 .79043 132.446 1131.004)"/></g><path d="M-62.454 1005.887c12.29-.001 22.253 9.36 22.25 20.91-.002 11.55-9.967 20.915-22.257 20.916-12.29 0-22.254-9.36-22.252-20.91.003-11.55 9.969-20.915 22.259-20.916z" fill="#fff"/><path d="M-167.225-254.836c10.545 6.087 19.093 22.866 19.091 37.477-.002 14.611-8.552 21.522-19.097 15.435-10.545-6.087-19.094-22.866-19.092-37.477.002-14.611 8.553-21.522 19.098-15.435z" stroke-miterlimit="10" stroke="#ffde96" stroke-width="2" fill="none" transform="matrix(1.1655 -.45636 0 .79043 132.446 1131.004)"/><path d="M-76.623 1042.934l.001-1.415c0-2.046 1.168-3.937 3.06-4.953l6.04-3.256h10.126l6.04 3.255c1.89 1.015 3.057 2.905 3.057 4.952v1.414s-5.105 4.78-14.162 4.782c-9.057.001-14.162-4.779-14.162-4.779z" fill="#f6bc3e"/><path d="M-62.46 1035.356c-4.468 0-8.092-4.355-8.09-8.555v-3.803c.002-4.2 3.625-7.604 8.094-7.605 4.468 0 8.092 3.404 8.09 7.604v3.802c0 4.2-3.625 8.556-8.094 8.557z" fill="#f6bc3e"/><path d="M-167.23-217.557c-3.834-2.213-6.943-9.518-6.942-14.831l.001-4.81c.001-5.313 3.11-7.825 6.944-5.612s6.943 8.315 6.942 13.628v4.81c-.001 5.313-3.111 9.028-6.945 6.815z" stroke-miterlimit="10" stroke="#fff" stroke-width="2" fill="none" transform="matrix(1.1655 -.45636 0 .79043 132.446 1131.004)"/><path d="M51.288 1015.17l-70.885.007c-.91 0-1.648-.577-1.648-1.29l.002-5.164c0-.713.737-1.29 1.648-1.29l70.884-.008c.91 0 1.648.578 1.648 1.29v5.164c0 .713-.74 1.291-1.65 1.291z" fill="#f6bc3e"/><path d="M51.278 1069.39l-136.822.014c-.91 0-1.648-.579-1.648-1.292l.001-5.163c0-.713.738-1.291 1.648-1.291l136.824-.015c.91 0 1.648.579 1.648 1.292l-.001 5.163c0 .713-.74 1.292-1.65 1.292z" opacity=".2" fill="#f4ab0d"/><g opacity=".2" fill="#f4ab0d"><path d="M15.01 1084.394l-100.556.01c-.91 0-1.648-.578-1.648-1.29v-5.164c0-.713.739-1.291 1.65-1.291l100.556-.01c.91 0 1.648.577 1.648 1.29l-.001 5.165c0 .713-.738 1.29-1.649 1.29z"/></g><g opacity=".2" fill="#f4ab0d"><path d="M16.147 1030.665l-35.746.004c-.91 0-1.648-.578-1.648-1.291l.001-5.164c0-.713.738-1.29 1.648-1.29l35.746-.004c.91 0 1.648.577 1.648 1.29v5.164c0 .713-.739 1.291-1.65 1.291z"/></g><g><path d="M66.11 1104.243l-75.83.008c-1.82 0-3.297 1.156-3.297 2.582l-.004 18.074c0 1.426 1.477 2.58 3.297 2.581l75.83-.008c1.82 0 3.297-1.156 3.297-2.582l.002-18.073c0-1.426-1.475-2.581-3.296-2.582z" fill="#bf8812"/></g><g><path d="M-24.556 1104.253l-75.83.007c-1.82 0-3.297 1.157-3.297 2.583l-.003 18.073c0 1.426 1.476 2.58 3.296 2.58l75.83-.007c1.82 0 3.297-1.156 3.297-2.581l.003-18.074c0-1.425-1.475-2.581-3.296-2.581z" fill="#f6bc3e"/></g></g></g><g transform="translate(212.755 -20.549)" filter="url(#h)"><g display="block"><path d="M18.153 105.396l-200.996-.001c-13.68 0-24.803 10.453-24.847 23.357l-1.541 446.407c-.046 12.898 11.005 23.358 24.685 23.358H16.45c13.678 0 24.802-10.46 24.846-23.358l1.542-446.407c.044-12.905-11.007-23.357-24.686-23.356z" fill="#e6efff"/><path d="M-168.3 122.963c3.117 0 5.628 2.383 5.619 5.316-.011 2.934-2.538 5.317-5.655 5.317-3.11 0-5.62-2.382-5.61-5.316.011-2.934 2.535-5.317 5.646-5.317M-114.632 122.168c.227-1.023 1.192-1.792 2.342-1.792h61.136c.575 0 1.092.196 1.502.512.416.32.721.763.831 1.28a2.125 2.125 0 0 1-.004.907c-.224 1.028-1.187 1.797-2.344 1.797h-61.136c-.622 0-1.187-.23-1.61-.6a2.664 2.664 0 0 1-.217-.222 2.149 2.149 0 0 1-.55-1.43 2.1 2.1 0 0 1 .05-.452" fill="#5888db"/><path d="M-64.448 139.742c-.008 2.146-1.86 3.88-4.136 3.88h-26.435c-2.276 0-4.116-1.734-4.109-3.88.008-2.147 1.86-3.89 4.136-3.89h26.435c2.275 0 4.116 1.743 4.11 3.89M-195.388 155.966l3.92-3.505L32.13 547.947l-2.62 2.891h-226.25l1.352-394.872z" fill="#8bb4fa"/><path d="M-191.469 152.46H33.483l-1.346 394.666h-224.951l1.345-394.665z" fill="#0d3273"/><path d="M20.944 101.304l-204.912.002c-14.987 0-27.176 11.461-27.225 25.599l-1.562 452.344c-.045 12.898 11.006 23.358 24.678 23.358h207.29c14.993 0 27.185-11.461 27.234-25.6l1.555-450.102c.05-14.138-12.064-25.6-27.058-25.6zM41.297 575.16c-.044 12.9-11.167 23.358-24.846 23.358h-200.997c-13.68 0-24.73-10.46-24.685-23.359l1.54-446.406c.045-12.905 11.167-23.357 24.848-23.357H18.154c13.678 0 24.73 10.452 24.685 23.357l-.113 32.618-1.429 413.79z" fill="#c2d7fc"/><path d="M46.538 550.913l-5.158-.03v5.62l5.139-.036.019-5.554z" fill="#9bbefa"/></g><g id="i"><g display="block"><path d="M-50.557-23.848l-155.583-89.803c-1.953-1.127-3.535-3.868-3.535-6.123l.021-187.806c0-2.255 1.583-3.169 3.536-2.042l155.583 89.803c1.953 1.127 3.536 3.869 3.536 6.124L-47.02-25.89c0 2.255-1.584 3.169-3.537 2.042z" fill="#d9e7fd" transform="matrix(1.25047 -.48963 0 .84806 81.006 334.827)"/><path d="M-50.557-23.848l-155.583-89.803c-1.953-1.127-3.535-3.868-3.535-6.123l.021-187.806c0-2.255 1.583-3.169 3.536-2.042l155.583 89.803c1.953 1.127 3.536 3.869 3.536 6.124L-47.02-25.89c0 2.255-1.584 3.169-3.537 2.042z" stroke-miterlimit="10" fill-opacity="0" stroke="#adcbff" stroke-width="2" transform="matrix(1.25047 -.48963 0 .84806 81.006 334.827)"/></g><path d="M-167.225-254.836c10.545 6.087 19.093 22.866 19.091 37.477-.002 14.611-8.552 21.522-19.097 15.435-10.545-6.087-19.094-22.866-19.092-37.477.002-14.611 8.553-21.522 19.098-15.435z" fill="#fff" transform="matrix(1.25047 -.48963 0 .84806 81.006 334.827)"/><path d="M-167.225-254.836c10.545 6.087 19.093 22.866 19.091 37.477-.002 14.611-8.552 21.522-19.097 15.435-10.545-6.087-19.094-22.866-19.092-37.477.002-14.611 8.553-21.522 19.098-15.435z" stroke-miterlimit="10" fill-opacity="0" stroke="#ccdfff" stroke-width="2" transform="matrix(1.25047 -.48963 0 .84806 81.006 334.827)"/><path d="M-179.382-214.985l.001-1.79c0-2.589 1.002-4.402 2.625-4.751l5.183-1.127 8.688 5.016 5.182 7.11c1.622 2.221 2.623 5.19 2.623 7.779v1.79s-4.38 3.519-12.151-.966-12.151-13.061-12.151-13.061z" fill="#3e81f6" transform="matrix(1.25047 -.48963 0 .84806 81.006 334.827)"/><path d="M-167.23-217.557c-3.834-2.213-6.943-9.518-6.942-14.831l.001-4.81c.001-5.313 3.11-7.825 6.944-5.612s6.943 8.315 6.942 13.628v4.81c-.001 5.313-3.111 9.028-6.945 6.815z" fill="#3e81f6" transform="matrix(1.25047 -.48963 0 .84806 81.006 334.827)"/><path d="M-167.23-217.557c-3.834-2.213-6.943-9.518-6.942-14.831l.001-4.81c.001-5.313 3.11-7.825 6.944-5.612s6.943 8.315 6.942 13.628v4.81c-.001 5.313-3.111 9.028-6.945 6.815z" stroke-miterlimit="10" fill-opacity="0" stroke="#fff" stroke-width="2" transform="matrix(1.25047 -.48963 0 .84806 81.006 334.827)"/><path d="M-69.634-186.747l-60.819-35.105c-.781-.451-1.414-1.547-1.414-2.449l.001-6.532c0-.902.633-1.268 1.414-.817l60.819 35.105c.781.451 1.414 1.547 1.414 2.449v6.532c0 .902-.634 1.268-1.415.817z" fill="#3e81f6" transform="matrix(1.25047 -.48963 0 .84806 81.006 334.827)"/><path d="M-69.642-118.157l-117.394-67.76c-.781-.451-1.414-1.548-1.414-2.45l.001-6.532c0-.902.633-1.268 1.414-.817l117.395 67.76c.781.451 1.414 1.548 1.414 2.45l-.001 6.532c0 .902-.634 1.268-1.415.817z" fill="#3e81f6" transform="matrix(1.25047 -.48963 0 .84806 81.006 334.827)" opacity=".2"/><g opacity=".2"><path d="M-100.76-117.141l-86.278-49.799c-.781-.451-1.414-1.548-1.414-2.45v-6.532c0-.902.634-1.268 1.415-.817l86.278 49.8c.781.451 1.414 1.547 1.414 2.449l-.001 6.533c0 .902-.633 1.267-1.414.816z" fill="#3e81f6" transform="matrix(1.25047 -.48963 0 .84806 81.006 334.827)"/></g><g opacity=".2"><path d="M-99.785-184.552l-30.67-17.702c-.781-.451-1.414-1.548-1.414-2.45l.001-6.532c0-.902.633-1.268 1.414-.817l30.67 17.703c.781.451 1.414 1.547 1.414 2.449v6.533c0 .902-.634 1.267-1.415.816z" fill="#3e81f6" transform="matrix(1.25047 -.48963 0 .84806 81.006 334.827)"/></g><g><path d="M-56.917-66.716l-65.062-37.554c-1.562-.902-2.829-.171-2.829 1.633l-.003 22.864c0 1.804 1.267 3.997 2.829 4.899L-56.92-37.32c1.562.902 2.829.17 2.829-1.634l.002-22.863c0-1.804-1.266-3.997-2.828-4.899z" fill="#1250bf" transform="matrix(1.25047 -.48963 0 .84806 81.006 334.827)"/></g><g><path d="M-134.708-111.617l-65.062-37.554c-1.562-.902-2.83-.171-2.83 1.633l-.002 22.864c0 1.804 1.266 3.996 2.828 4.898l65.062 37.554c1.562.902 2.829.171 2.829-1.633l.003-22.863c0-1.804-1.266-3.997-2.828-4.899z" fill="#3e81f6" transform="matrix(1.25047 -.48963 0 .84806 81.006 334.827)"/></g></g><use xlink:href="#i" transform="translate(-1.076 184.833)" width="100%" height="100%"/></g></svg>